#N canvas 588 251 1280 720 10;
#X obj 219 97 phasor~;
#X obj 219 119 +~ 0.5;
#X obj 219 141 cos~;
#X obj 219 167 +~ 2;
#X obj 219 189 *~ 2;
#X obj 219 211 vd~ voice;
#X obj 285 139 phasor~;
#X obj 285 183 cos~;
#X obj 285 209 +~ 2;
#X obj 285 231 *~ 2;
#X obj 285 253 vd~ voice;
#X obj 285 161 +~ 0.33;
#X obj 356 177 phasor~;
#X obj 356 221 cos~;
#X obj 356 247 +~ 2;
#X obj 356 269 *~ 2;
#X obj 356 291 vd~ voice;
#X obj 428 156 hsl 128 15 0 5 0 0 empty empty empty -2 -8 0 10 -262144
-1 -1 1778 1;
#X floatatom 433 183 5 0 0 0 - - -;
#X obj 356 199 +~ 0.66;
#X obj 447 215 hsl 128 15 0 5 0 0 empty empty empty -2 -8 0 10 -262144
-1 -1 6096 1;
#X floatatom 452 245 5 0 0 0 - - -;
#X obj 470 271 hsl 128 15 -0.9 0.9 0 0 empty empty empty -2 -8 0 10
-262144 -1 -1 4233 1;
#X obj 467 312 *~ 0.8;
#X floatatom 508 293 5 0 0 0 - - -;
#X obj 50 60 delwrite~ voice 1000;
#X obj 622 65 netreceive 5001 1;
#X obj 621 88 route 0 1 2;
#X obj 657 168 * 0.001;
#X obj 602 149 * 0.005;
#X obj 547 130 * 0.005;
#X obj 238 353 dac~;
#X obj 48 38 *~ 0.5;
#X obj 44 12 adc~;
#X obj 751 161 loadbang;
#X msg 791 183 -0.3;
#X msg 751 184 2.4;
#X msg 772 219 0.7;
#X connect 0 0 1 0;
#X connect 1 0 2 0;
#X connect 2 0 3 0;
#X connect 3 0 4 0;
#X connect 4 0 5 0;
#X connect 5 0 31 0;
#X connect 6 0 11 0;
#X connect 7 0 8 0;
#X connect 8 0 9 0;
#X connect 9 0 10 0;
#X connect 10 0 31 0;
#X connect 11 0 7 0;
#X connect 12 0 19 0;
#X connect 13 0 14 0;
#X connect 14 0 15 0;
#X connect 15 0 16 0;
#X connect 16 0 23 0;
#X connect 16 0 31 0;
#X connect 17 0 12 0;
#X connect 17 0 18 0;
#X connect 17 0 6 0;
#X connect 17 0 0 0;
#X connect 19 0 13 0;
#X connect 20 0 14 1;
#X connect 20 0 15 1;
#X connect 20 0 8 1;
#X connect 20 0 9 1;
#X connect 20 0 3 1;
#X connect 20 0 4 1;
#X connect 20 0 21 0;
#X connect 22 0 23 1;
#X connect 22 0 24 0;
#X connect 23 0 25 0;
#X connect 26 0 27 0;
#X connect 27 0 30 0;
#X connect 27 1 29 0;
#X connect 27 2 28 0;
#X connect 28 0 22 0;
#X connect 29 0 20 0;
#X connect 30 0 17 0;
#X connect 32 0 25 0;
#X connect 32 0 31 0;
#X connect 33 0 32 0;
#X connect 33 1 32 0;
#X connect 34 0 35 0;
#X connect 34 0 36 0;
#X connect 34 0 37 0;
#X connect 35 0 22 0;
#X connect 36 0 20 0;
#X connect 37 0 17 0;
