#N canvas -2 46 1680 976 10;
#X obj 66 77 adc~;
#X obj 66 99 hip~ 720.484;
#X obj 66 121 *~;
#X obj 207 103 hsl 128 15 11.851 118.234 0 0 empty empty empty -2 -8
0 10 -260097 -1 -1 2684 1;
#X obj 82 299 *~;
#X obj 92 269 *~;
#X obj 83 337 /~ -3;
#X obj 60 146 clip~ -1 1;
#X obj 65 406 clip~ -0.5 0.5;
#X obj 63 435 lop~ 723.431;
#X obj 63 457 hip~;
#X obj 63 479 dac~;
#X obj 494 51 netreceive 5001 1;
#X obj 494 73 route 0 1 2;
#X floatatom 204 123 5 0 0 0 - - -;
#X floatatom 465 142 5 0 0 0 - - -;
#X obj 465 120 * 0.116;
#X connect 0 0 1 0;
#X connect 0 0 9 0;
#X connect 1 0 2 0;
#X connect 2 0 7 0;
#X connect 3 0 2 1;
#X connect 3 0 10 1;
#X connect 3 0 14 0;
#X connect 4 0 6 0;
#X connect 5 0 4 1;
#X connect 6 0 8 0;
#X connect 7 0 5 0;
#X connect 7 0 5 1;
#X connect 7 0 4 0;
#X connect 7 0 8 0;
#X connect 8 0 9 0;
#X connect 9 0 10 0;
#X connect 10 0 11 0;
#X connect 12 0 13 0;
#X connect 13 2 16 0;
#X connect 16 0 3 0;
#X connect 16 0 15 0;
