#N canvas 492 244 526 408 10;
#X obj 218 52 hip~ 400;
#X obj 108 208 hip~ 400;
#X obj 41 50 delwrite~ delay 1000;
#X obj 244 194 noise~;
#X obj 245 230 *~ 0.001;
#X obj 44 171 delread~ delay 250;
#X obj 112 114 *~ 0.8;
#X obj 39 22 adc~;
#X obj 173 264 dac~;
#X obj 263 135 hsl 128 15 0 1000 0 0 empty empty empty -2 -8 0 10 -262144
-1 -1 3467 1;
#X obj 280 93 hsl 128 15 0 0.9 0 0 empty empty empty -2 -8 0 10 -262144
-1 -1 7168 1;
#X floatatom 260 161 5 0 0 0 - - -;
#X floatatom 277 113 5 0 0 0 - - -;
#X obj 330 28 netreceive 5001 1;
#X obj 330 50 route 0 1 2;
#X obj 440 93 * 0.001;
#X connect 0 0 8 0;
#X connect 1 0 8 0;
#X connect 3 0 4 0;
#X connect 4 0 2 0;
#X connect 5 0 1 0;
#X connect 5 0 6 0;
#X connect 6 0 2 0;
#X connect 7 0 2 0;
#X connect 7 0 0 0;
#X connect 9 0 5 0;
#X connect 9 0 11 0;
#X connect 10 0 6 1;
#X connect 10 0 12 0;
#X connect 13 0 14 0;
#X connect 14 1 15 0;
#X connect 14 2 9 0;
#X connect 15 0 10 0;
