#N canvas 132 196 1280 720 10;
#X obj 75 54 adc~;
#X obj 75 175 dac~;
#X obj 203 95 phasor~;
#X obj 49 92 delwrite~ voice1 100;
#X obj 203 137 *~ 2;
#X obj 203 159 +~ 2;
#X obj 203 183 +~ 0.5;
#X obj 203 116 cos~;
#X obj 470 34 hsl 128 15 0 5 0 0 empty empty empty -2 -8 0 10 -262144
-1 -1 8471 1;
#X floatatom 481 66 5 0 0 0 - - -;
#X obj 472 110 hsl 128 15 0 5 0 0 empty empty empty -2 -8 0 10 -262144
-1 -1 6325 1;
#X obj 207 233 delwrite~ voice2 100;
#X obj 497 168 phasor~;
#X obj 497 210 *~ 2;
#X obj 497 232 +~ 2;
#X obj 497 189 cos~;
#X obj 497 256 +~ 0.66;
#X obj 496 291 vd~ voice1;
#X obj 376 83 phasor~;
#X obj 376 125 *~ 2;
#X obj 376 147 +~ 2;
#X obj 376 104 cos~;
#X obj 376 171 +~ 0.33;
#X obj 360 208 vd~ voice2;
#X obj 305 344 *~ 0.8;
#X floatatom 515 141 5 0 0 0 - - -;
#X obj 317 176 *~ 0.8;
#X obj 591 229 hsl 128 15 -0.9 0.9 0 0 empty empty empty -2 -8 0 10
-262144 -1 -1 6914 1;
#X floatatom 588 249 5 0 0 0 - - -;
#X obj 325 55 / 2;
#X obj 646 40 netreceive 5001 1;
#X obj 646 62 route 0 1 2;
#X obj 611 94 * 0.005;
#X obj 571 63 * 0.005;
#X obj 680 103 * 0.001;
#X connect 0 0 3 0;
#X connect 0 0 1 0;
#X connect 2 0 7 0;
#X connect 4 0 5 0;
#X connect 5 0 6 0;
#X connect 6 0 11 0;
#X connect 7 0 4 0;
#X connect 8 0 9 0;
#X connect 8 0 18 0;
#X connect 8 0 29 0;
#X connect 10 0 5 1;
#X connect 10 0 4 1;
#X connect 10 0 19 1;
#X connect 10 0 20 1;
#X connect 10 0 13 1;
#X connect 10 0 14 1;
#X connect 10 0 25 0;
#X connect 12 0 15 0;
#X connect 13 0 14 0;
#X connect 14 0 16 0;
#X connect 15 0 13 0;
#X connect 16 0 17 0;
#X connect 17 0 1 0;
#X connect 17 0 24 0;
#X connect 18 0 21 0;
#X connect 19 0 20 0;
#X connect 20 0 22 0;
#X connect 21 0 19 0;
#X connect 22 0 23 0;
#X connect 23 0 12 0;
#X connect 23 0 26 0;
#X connect 24 0 3 0;
#X connect 26 0 11 0;
#X connect 27 0 28 0;
#X connect 27 0 24 1;
#X connect 28 0 26 1;
#X connect 29 0 2 0;
#X connect 30 0 31 0;
#X connect 31 0 33 0;
#X connect 31 1 32 0;
#X connect 31 2 34 0;
#X connect 32 0 10 0;
#X connect 33 0 8 0;
#X connect 34 0 27 0;
