#N canvas 718 267 717 482 10;
#X obj 131 229 +~;
#X obj 135 198 *~;
#X obj 138 46 hsl 128 15 0 20 0 0 empty empty empty -2 -8 0 10 -262144
-1 -1 0 1;
#X obj 205 171 hsl 128 15 0 1 0 0 empty empty empty -2 -8 0 10 -262144
-1 -1 0 1;
#X floatatom 203 213 5 0 0 0 - - -;
#X obj 198 248 expr 1-$f1;
#X floatatom 198 275 5 0 0 0 - - -;
#X obj 69 12 loadbang;
#X obj 367 195 loadbang;
#X msg 373 231 0.5;
#X obj 42 165 *~ 2;
#X obj 38 129 adc~;
#X obj 45 240 dac~;
#X obj 133 87 osc~;
#X floatatom 158 66 5 0 0 0 - - -;
#X obj 104 157 clip~ -1 1;
#X obj 43 207 *~;
#X obj 182 110 hsl 128 15 0 20 0 0 empty empty empty -2 -8 0 10 -262144
-1 -1 0 1;
#X obj 132 122 *~;
#X obj 330 31 loadbang;
#X msg 330 53 20;
#X msg 75 48 6;
#X obj 446 48 netreceive 5001 1;
#X obj 446 70 route 0 1 2;
#X obj 469 110 * 0.001;
#X obj 415 108 * 0.02;
#X obj 369 84 * 0.02;
#X connect 0 0 16 1;
#X connect 1 0 0 0;
#X connect 2 0 13 0;
#X connect 2 0 14 0;
#X connect 3 0 1 1;
#X connect 3 0 4 0;
#X connect 4 0 5 0;
#X connect 5 0 6 0;
#X connect 5 0 0 1;
#X connect 7 0 21 0;
#X connect 8 0 9 0;
#X connect 9 0 3 0;
#X connect 10 0 16 0;
#X connect 11 0 10 0;
#X connect 13 0 18 0;
#X connect 15 0 1 0;
#X connect 16 0 12 0;
#X connect 17 0 18 1;
#X connect 18 0 15 0;
#X connect 19 0 20 0;
#X connect 20 0 17 0;
#X connect 21 0 2 0;
#X connect 22 0 23 0;
#X connect 23 0 24 0;
#X connect 23 1 25 0;
#X connect 23 2 26 0;
#X connect 24 0 3 0;
#X connect 25 0 17 0;
#X connect 26 0 2 0;
