#N canvas 576 299 660 539 10;
#X obj 31 72 delwrite~ pitch 50;
#X obj 166 -94 vsl 15 128 1 5 0 0 empty empty empty 0 -9 0 10 -262144
-1 -1 1714 1;
#X floatatom 173 64 5 0 0 0 - - -;
#X obj 76 226 vd~ pitch;
#X obj 164 132 hsl 128 15 0.0001 5 0 0 empty empty empty -2 -8 0 10
-260097 -1 -1 12700 1;
#X floatatom 173 168 5 0 0 0 - - -;
#X obj 57 107 osc~ 2;
#X obj 68 139 *~ 1;
#X obj 141 161 * 2;
#X obj 86 175 +~ 2;
#X obj 250 65 loadbang;
#X msg 259 95 1.388;
#X obj 80 -64 loadbang;
#X msg 89 -34 2.388;
#X obj 28 36 adc~;
#X obj 75 260 dac~;
#X obj 335 -45 netreceive 5001 1;
#X obj 335 -23 route 0 1 2;
#X obj 232 -79 * 0.005;
#X obj 282 16 * 0.005;
#X connect 1 0 2 0;
#X connect 1 0 6 0;
#X connect 3 0 15 0;
#X connect 4 0 8 0;
#X connect 4 0 7 1;
#X connect 4 0 5 0;
#X connect 6 0 7 0;
#X connect 7 0 9 0;
#X connect 8 0 9 1;
#X connect 9 0 3 0;
#X connect 10 0 11 0;
#X connect 11 0 4 0;
#X connect 12 0 13 0;
#X connect 13 0 1 0;
#X connect 14 0 0 0;
#X connect 16 0 17 0;
#X connect 17 1 18 0;
#X connect 17 2 19 0;
#X connect 18 0 1 0;
#X connect 19 0 4 0;
