#N canvas 242 235 532 500 10;
#X text 273 427 Pierre Massat \, GuitarExtended \, 2012.s;
#X obj 21 379 vcf~;
#X obj 20 -18 adc~;
#X obj 15 414 dac~;
#X floatatom 112 343 5 0 0 0 - - -;
#X obj 112 210 vsl 15 128 0 20 0 0 empty empty empty 0 -9 0 10 -262144
-1 -1 3366 1;
#X obj 87 21 +~ 1;
#X obj 88 42 *~ 0.5;
#X obj 87 0 osc~ 2;
#X obj 189 77 hsl 128 15 700 6000 0 0 empty empty empty -2 -8 0 10
-262144 -1 -1 0 1;
#X obj 143 150 hsl 128 15 0 700 0 0 empty empty empty -2 -8 0 10 -262144
-1 -1 0 1;
#X floatatom 140 169 6 0 0 0 - - -;
#X floatatom 141 111 6 0 0 0 - - -;
#X obj 141 92 -;
#X obj 141 70 bang;
#X obj 41 176 +~ 200;
#X obj 40 94 *~ 1500;
#X obj 92 -29 hsl 128 15 0.5 4 0 0 empty empty empty -2 -8 0 10 -262144
-1 -1 0 1;
#X obj 184 201 loadbang;
#X msg 182 226 5.3;
#X floatatom 180 -5 5 0 0 0 - - -;
#X obj 339 -9 netreceive 5001 1;
#X obj 339 13 route 0 1 2;
#X obj 352 64 * 0.7;
#X obj 436 43 * 6;
#X obj 260 -1 * 0.004;
#X obj 23 60 clip~ -0.5 0.5;
#X obj 23 38 *~ 25;
#X connect 1 0 3 1;
#X connect 1 0 3 0;
#X connect 2 0 27 0;
#X connect 5 0 4 0;
#X connect 5 0 1 2;
#X connect 6 0 7 0;
#X connect 7 0 16 0;
#X connect 8 0 6 0;
#X connect 9 0 13 0;
#X connect 10 0 11 0;
#X connect 10 0 13 1;
#X connect 10 0 14 0;
#X connect 10 0 15 1;
#X connect 13 0 12 0;
#X connect 13 0 16 1;
#X connect 14 0 13 0;
#X connect 15 0 1 1;
#X connect 16 0 15 0;
#X connect 17 0 8 0;
#X connect 17 0 20 0;
#X connect 18 0 19 0;
#X connect 19 0 5 0;
#X connect 21 0 22 0;
#X connect 22 0 25 0;
#X connect 22 1 23 0;
#X connect 22 2 24 0;
#X connect 23 0 10 0;
#X connect 24 0 9 0;
#X connect 25 0 17 0;
#X connect 26 0 1 0;
#X connect 27 0 26 0;
